<?xml version="1.0" encoding="UTF-8"?>
<svg version="1.1" xmlns="http://www.w3.org/2000/svg" width="1080" height="1080">
<path d="M0 0 C4.21654257 3.16240693 6.59003546 6.73189197 8.25 11.6875 C8.49291992 14.42651367 8.49291992 14.42651367 8.48046875 17.35546875 C8.47853516 18.41314453 8.47660156 19.47082031 8.47460938 20.56054688 C8.46236328 21.65431641 8.45011719 22.74808594 8.4375 23.875 C8.43685547 24.98037109 8.43621094 26.08574219 8.43554688 27.22460938 C8.39050904 35.40648191 8.39050904 35.40648191 7.25 37.6875 C7.09777027 39.35315749 7.00082785 41.02406496 6.93359375 42.6953125 C6.89169922 43.68144531 6.84980469 44.66757812 6.80664062 45.68359375 C6.74766602 47.23240234 6.74766602 47.23240234 6.6875 48.8125 C6.64431641 49.85277344 6.60113281 50.89304687 6.55664062 51.96484375 C6.4503712 54.53892528 6.34833417 57.11310508 6.25 59.6875 C5.59 59.6875 4.93 59.6875 4.25 59.6875 C4.26160156 60.90308594 4.27320313 62.11867188 4.28515625 63.37109375 C4.29453278 64.95572764 4.30363313 66.54036318 4.3125 68.125 C4.32087891 68.92744141 4.32925781 69.72988281 4.33789062 70.55664062 C4.3465143 72.60045221 4.3022815 74.64433902 4.25 76.6875 C3.92 77.0175 3.59 77.3475 3.25 77.6875 C3.04111292 79.68353206 2.88224523 81.68492941 2.75 83.6875 C2.36111111 89.57638889 2.36111111 89.57638889 1.25 90.6875 C1.06230502 92.32908622 0.92578371 93.97660638 0.8125 95.625 C0.27531816 102.08796899 -0.57969432 108.42577352 -2.77734375 114.55078125 C-3.83289824 117.9548385 -4.15752218 121.01036231 -4.375 124.5625 C-4.48714844 126.29113281 -4.48714844 126.29113281 -4.6015625 128.0546875 C-4.65054687 128.92351562 -4.69953125 129.79234375 -4.75 130.6875 C-5.41 130.6875 -6.07 130.6875 -6.75 130.6875 C-6.73839844 131.61433594 -6.72679687 132.54117188 -6.71484375 133.49609375 C-6.70130859 135.29240234 -6.70130859 135.29240234 -6.6875 137.125 C-6.67009766 138.91744141 -6.67009766 138.91744141 -6.65234375 140.74609375 C-6.75 143.6875 -6.75 143.6875 -7.75 144.6875 C-7.95888708 146.68353206 -8.11775477 148.68492941 -8.25 150.6875 C-8.63888889 156.57638889 -8.63888889 156.57638889 -9.75 157.6875 C-9.95837419 159.51656235 -10.11749659 161.35138134 -10.25 163.1875 C-10.63888889 168.57638889 -10.63888889 168.57638889 -11.75 169.6875 C-11.95888708 171.68353206 -12.11775477 173.68492941 -12.25 175.6875 C-12.63888889 181.57638889 -12.63888889 181.57638889 -13.75 182.6875 C-14.12168482 184.847918 -14.44791391 187.01625622 -14.75 189.1875 C-15.63888889 195.57638889 -15.63888889 195.57638889 -16.75 196.6875 C-16.98427778 198.70344582 -17.16336124 200.725974 -17.3125 202.75 C-17.43818359 204.40708984 -17.43818359 204.40708984 -17.56640625 206.09765625 C-17.62699219 206.95230469 -17.68757813 207.80695313 -17.75 208.6875 C-18.41 208.6875 -19.07 208.6875 -19.75 208.6875 C-19.73839844 209.54214844 -19.72679687 210.39679688 -19.71484375 211.27734375 C-19.70130859 212.93443359 -19.70130859 212.93443359 -19.6875 214.625 C-19.67589844 215.72714844 -19.66429687 216.82929687 -19.65234375 217.96484375 C-19.75 220.6875 -19.75 220.6875 -20.75 221.6875 C-20.98363881 223.53641946 -21.16303635 225.39238031 -21.3125 227.25 C-21.39628906 228.26191406 -21.48007812 229.27382813 -21.56640625 230.31640625 C-21.62699219 231.09886719 -21.68757813 231.88132812 -21.75 232.6875 C-22.41 232.6875 -23.07 232.6875 -23.75 232.6875 C-23.73839844 233.54214844 -23.72679687 234.39679688 -23.71484375 235.27734375 C-23.70130859 236.93443359 -23.70130859 236.93443359 -23.6875 238.625 C-23.67589844 239.72714844 -23.66429687 240.82929687 -23.65234375 241.96484375 C-23.75 244.6875 -23.75 244.6875 -24.75 245.6875 C-24.9115787 247.30927135 -25.02821414 248.93557576 -25.125 250.5625 C-25.61336899 256.53920617 -27.05842518 261.95685879 -28.75 267.6875 C-29.44059542 270.34881894 -30.09500333 273.01712894 -30.75 275.6875 C-31.41 275.6875 -32.07 275.6875 -32.75 275.6875 C-32.894375 276.47125 -33.03875 277.255 -33.1875 278.0625 C-33.75 280.6875 -33.75 280.6875 -34.75 282.6875 C-35.41 282.6875 -36.07 282.6875 -36.75 282.6875 C-36.75 284.0075 -36.75 285.3275 -36.75 286.6875 C-37.41 286.6875 -38.07 286.6875 -38.75 286.6875 C-39.018125 287.326875 -39.28625 287.96625 -39.5625 288.625 C-40.75 290.6875 -40.75 290.6875 -43.75 291.6875 C-43.75 292.3475 -43.75 293.0075 -43.75 293.6875 C-45.07 293.6875 -46.39 293.6875 -47.75 293.6875 C-47.75 294.3475 -47.75 295.0075 -47.75 295.6875 C-48.37648438 295.74808594 -49.00296875 295.80867188 -49.6484375 295.87109375 C-50.87433594 295.99677734 -50.87433594 295.99677734 -52.125 296.125 C-52.93710937 296.20621094 -53.74921875 296.28742188 -54.5859375 296.37109375 C-56.79272805 296.57840114 -56.79272805 296.57840114 -58.75 297.6875 C-59.74 297.3575 -60.73 297.0275 -61.75 296.6875 C-64.48470417 296.42080284 -67.21910508 296.2439078 -69.9609375 296.06640625 C-72.83506945 295.67594295 -75.11331457 294.87161146 -77.75 293.6875 C-77.75 293.0275 -77.75 292.3675 -77.75 291.6875 C-79.07 291.6875 -80.39 291.6875 -81.75 291.6875 C-81.75 291.0275 -81.75 290.3675 -81.75 289.6875 C-82.265625 289.605 -82.78125 289.5225 -83.3125 289.4375 C-86.79455732 288.36609775 -89.62200885 286.55226395 -92.75 284.6875 C-92.75 284.0275 -92.75 283.3675 -92.75 282.6875 C-93.41 282.6875 -94.07 282.6875 -94.75 282.6875 C-94.75 282.0275 -94.75 281.3675 -94.75 280.6875 C-96.07 280.6875 -97.39 280.6875 -98.75 280.6875 C-98.75 280.0275 -98.75 279.3675 -98.75 278.6875 C-99.74 278.6875 -100.73 278.6875 -101.75 278.6875 C-101.75 278.0275 -101.75 277.3675 -101.75 276.6875 C-102.554375 276.419375 -103.35875 276.15125 -104.1875 275.875 C-105.033125 275.483125 -105.87875 275.09125 -106.75 274.6875 C-107.08 273.6975 -107.41 272.7075 -107.75 271.6875 C-108.575 271.419375 -109.4 271.15125 -110.25 270.875 C-114.91805009 269.29119729 -118.93173084 266.80999567 -122.75 263.6875 C-122.75 263.0275 -122.75 262.3675 -122.75 261.6875 C-124.07 261.3575 -125.39 261.0275 -126.75 260.6875 C-126.75 260.0275 -126.75 259.3675 -126.75 258.6875 C-127.74 258.6875 -128.73 258.6875 -129.75 258.6875 C-129.75 258.0275 -129.75 257.3675 -129.75 256.6875 C-131.73 256.0275 -133.71 255.3675 -135.75 254.6875 C-135.75 254.0275 -135.75 253.3675 -135.75 252.6875 C-137.0184375 252.3471875 -137.0184375 252.3471875 -138.3125 252 C-142.25386856 250.49511382 -145.63761859 248.56046745 -148.75 245.6875 C-148.75 245.0275 -148.75 244.3675 -148.75 243.6875 C-149.59304688 243.51927734 -149.59304688 243.51927734 -150.453125 243.34765625 C-153.06513108 242.59692661 -155.14471322 241.47582624 -157.5 240.125 C-158.29921875 239.66996094 -159.0984375 239.21492187 -159.921875 238.74609375 C-160.52515625 238.39675781 -161.1284375 238.04742188 -161.75 237.6875 C-161.75 237.0275 -161.75 236.3675 -161.75 235.6875 C-162.471875 235.419375 -163.19375 235.15125 -163.9375 234.875 C-166.74766383 233.68848638 -169.23416557 232.41264361 -171.75 230.6875 C-171.75 230.0275 -171.75 229.3675 -171.75 228.6875 C-172.74 228.6875 -173.73 228.6875 -174.75 228.6875 C-174.75 228.0275 -174.75 227.3675 -174.75 226.6875 C-177.72 225.6975 -177.72 225.6975 -180.75 224.6875 C-180.75 224.0275 -180.75 223.3675 -180.75 222.6875 C-182.4 222.0275 -184.05 221.3675 -185.75 220.6875 C-185.75 219.6975 -185.75 218.7075 -185.75 217.6875 C-186.36875 217.44 -186.9875 217.1925 -187.625 216.9375 C-190.15358627 215.45009631 -190.46839004 214.25071991 -191.75 211.6875 C-193.07520503 211.00481862 -194.40812182 210.3367959 -195.75 209.6875 C-196.08 208.6975 -196.41 207.7075 -196.75 206.6875 C-197.41 206.6875 -198.07 206.6875 -198.75 206.6875 C-199.26871665 199.12576389 -199.51314334 193.32529099 -195.0390625 186.98046875 C-194.61367188 186.55378906 -194.18828125 186.12710938 -193.75 185.6875 C-193.09 185.6875 -192.43 185.6875 -191.75 185.6875 C-191.75 185.0275 -191.75 184.3675 -191.75 183.6875 C-191.09 183.6875 -190.43 183.6875 -189.75 183.6875 C-189.75 183.0275 -189.75 182.3675 -189.75 181.6875 C-189.09 181.6875 -188.43 181.6875 -187.75 181.6875 C-187.523125 180.98625 -187.29625 180.285 -187.0625 179.5625 C-185.41158712 175.94621465 -183.4591165 173.59980024 -180.75 170.6875 C-180.09 170.6875 -179.43 170.6875 -178.75 170.6875 C-178.75 170.0275 -178.75 169.3675 -178.75 168.6875 C-178.09 168.6875 -177.43 168.6875 -176.75 168.6875 C-176.75 168.0275 -176.75 167.3675 -176.75 166.6875 C-176.09 166.6875 -175.43 166.6875 -174.75 166.6875 C-174.75 166.0275 -174.75 165.3675 -174.75 164.6875 C-174.09 164.6875 -173.43 164.6875 -172.75 164.6875 C-172.75 164.0275 -172.75 163.3675 -172.75 162.6875 C-170.8515625 160.9609375 -170.8515625 160.9609375 -168.375 159.0625 C-167.56289063 158.43085937 -166.75078125 157.79921875 -165.9140625 157.1484375 C-163.75 155.6875 -163.75 155.6875 -161.75 155.6875 C-161.75 155.0275 -161.75 154.3675 -161.75 153.6875 C-161.09 153.6875 -160.43 153.6875 -159.75 153.6875 C-159.75 153.0275 -159.75 152.3675 -159.75 151.6875 C-159.09 151.6875 -158.43 151.6875 -157.75 151.6875 C-157.481875 151.048125 -157.21375 150.40875 -156.9375 149.75 C-155.75 147.6875 -155.75 147.6875 -152.75 146.6875 C-152.75 146.0275 -152.75 145.3675 -152.75 144.6875 C-152.09 144.6875 -151.43 144.6875 -150.75 144.6875 C-150.75 144.0275 -150.75 143.3675 -150.75 142.6875 C-150.09 142.6875 -149.43 142.6875 -148.75 142.6875 C-148.75 142.0275 -148.75 141.3675 -148.75 140.6875 C-148.09 140.6875 -147.43 140.6875 -146.75 140.6875 C-146.75 140.0275 -146.75 139.3675 -146.75 138.6875 C-146.09 138.6875 -145.43 138.6875 -144.75 138.6875 C-144.75 138.0275 -144.75 137.3675 -144.75 136.6875 C-144.09 136.6875 -143.43 136.6875 -142.75 136.6875 C-142.42 135.6975 -142.09 134.7075 -141.75 133.6875 C-136.37857143 129.6875 -136.37857143 129.6875 -133.75 129.6875 C-133.75 129.0275 -133.75 128.3675 -133.75 127.6875 C-133.09 127.6875 -132.43 127.6875 -131.75 127.6875 C-131.75 127.0275 -131.75 126.3675 -131.75 125.6875 C-131.09 125.6875 -130.43 125.6875 -129.75 125.6875 C-129.481875 125.048125 -129.21375 124.40875 -128.9375 123.75 C-127.75 121.6875 -127.75 121.6875 -124.75 120.6875 C-124.75 120.0275 -124.75 119.3675 -124.75 118.6875 C-124.09 118.6875 -123.43 118.6875 -122.75 118.6875 C-122.75 118.0275 -122.75 117.3675 -122.75 116.6875 C-122.09 116.6875 -121.43 116.6875 -120.75 116.6875 C-120.75 116.0275 -120.75 115.3675 -120.75 114.6875 C-120.09 114.6875 -119.43 114.6875 -118.75 114.6875 C-118.75 114.0275 -118.75 113.3675 -118.75 112.6875 C-118.09 112.6875 -117.43 112.6875 -116.75 112.6875 C-116.75 112.0275 -116.75 111.3675 -116.75 110.6875 C-116.09 110.6875 -115.43 110.6875 -114.75 110.6875 C-114.42 109.6975 -114.09 108.7075 -113.75 107.6875 C-113.09 107.6875 -112.43 107.6875 -111.75 107.6875 C-111.75 107.0275 -111.75 106.3675 -111.75 105.6875 C-111.09 105.6875 -110.43 105.6875 -109.75 105.6875 C-109.75 105.0275 -109.75 104.3675 -109.75 103.6875 C-104.33823529 99.6875 -104.33823529 99.6875 -101.75 99.6875 C-101.75 99.0275 -101.75 98.3675 -101.75 97.6875 C-101.09 97.6875 -100.43 97.6875 -99.75 97.6875 C-99.42 96.6975 -99.09 95.7075 -98.75 94.6875 C-98.09 94.6875 -97.43 94.6875 -96.75 94.6875 C-96.75 94.0275 -96.75 93.3675 -96.75 92.6875 C-96.09 92.6875 -95.43 92.6875 -94.75 92.6875 C-94.75 92.0275 -94.75 91.3675 -94.75 90.6875 C-94.09 90.6875 -93.43 90.6875 -92.75 90.6875 C-92.605625 90.06875 -92.46125 89.45 -92.3125 88.8125 C-91.75 86.6875 -91.75 86.6875 -90.75 84.6875 C-90.09 84.6875 -89.43 84.6875 -88.75 84.6875 C-88.75 83.6975 -88.75 82.7075 -88.75 81.6875 C-90.07 81.6875 -91.39 81.6875 -92.75 81.6875 C-92.75 82.3475 -92.75 83.0075 -92.75 83.6875 C-98.375 86.6875 -98.375 86.6875 -101.75 86.6875 C-101.75 87.3475 -101.75 88.0075 -101.75 88.6875 C-103.07 88.6875 -104.39 88.6875 -105.75 88.6875 C-105.75 89.3475 -105.75 90.0075 -105.75 90.6875 C-108.75 92.6875 -108.75 92.6875 -112.75 92.6875 C-112.75 93.3475 -112.75 94.0075 -112.75 94.6875 C-113.41 94.6875 -114.07 94.6875 -114.75 94.6875 C-114.75 95.3475 -114.75 96.0075 -114.75 96.6875 C-116.07 96.6875 -117.39 96.6875 -118.75 96.6875 C-119.08 97.6775 -119.41 98.6675 -119.75 99.6875 C-122.75 101.6875 -122.75 101.6875 -125.75 101.6875 C-125.75 102.3475 -125.75 103.0075 -125.75 103.6875 C-128.75 105.6875 -128.75 105.6875 -131.75 105.6875 C-131.75 106.3475 -131.75 107.0075 -131.75 107.6875 C-134.39738916 109.1481285 -135.64448334 109.6875 -138.75 109.6875 C-139.08 110.6775 -139.41 111.6675 -139.75 112.6875 C-142.3125 113.875 -142.3125 113.875 -144.75 114.6875 C-144.75 115.3475 -144.75 116.0075 -144.75 116.6875 C-146.07 116.6875 -147.39 116.6875 -148.75 116.6875 C-148.75 117.3475 -148.75 118.0075 -148.75 118.6875 C-149.74 118.6875 -150.73 118.6875 -151.75 118.6875 C-151.75 119.3475 -151.75 120.0075 -151.75 120.6875 C-154.72 121.6775 -154.72 121.6775 -157.75 122.6875 C-157.75 123.3475 -157.75 124.0075 -157.75 124.6875 C-159.07 125.0175 -160.39 125.3475 -161.75 125.6875 C-161.75 126.3475 -161.75 127.0075 -161.75 127.6875 C-162.74 127.6875 -163.73 127.6875 -164.75 127.6875 C-164.75 128.3475 -164.75 129.0075 -164.75 129.6875 C-167.72 130.6775 -167.72 130.6775 -170.75 131.6875 C-170.75 132.3475 -170.75 133.0075 -170.75 133.6875 C-173.75 135.6875 -173.75 135.6875 -176.75 135.6875 C-176.75 136.3475 -176.75 137.0075 -176.75 137.6875 C-177.74 137.6875 -178.73 137.6875 -179.75 137.6875 C-179.75 138.3475 -179.75 139.0075 -179.75 139.6875 C-181.07 140.0175 -182.39 140.3475 -183.75 140.6875 C-183.75 141.3475 -183.75 142.0075 -183.75 142.6875 C-186.75 144.6875 -186.75 144.6875 -189.75 144.6875 C-189.75 145.3475 -189.75 146.0075 -189.75 146.6875 C-190.74 146.6875 -191.73 146.6875 -192.75 146.6875 C-192.75 147.3475 -192.75 148.0075 -192.75 148.6875 C-194.07 148.6875 -195.39 148.6875 -196.75 148.6875 C-196.75 149.3475 -196.75 150.0075 -196.75 150.6875 C-197.41 150.6875 -198.07 150.6875 -198.75 150.6875 C-198.75 151.3475 -198.75 152.0075 -198.75 152.6875 C-203.13461538 155.6875 -203.13461538 155.6875 -205.75 155.6875 C-205.75 156.3475 -205.75 157.0075 -205.75 157.6875 C-207.07 157.6875 -208.39 157.6875 -209.75 157.6875 C-209.75 158.3475 -209.75 159.0075 -209.75 159.6875 C-210.41 159.6875 -211.07 159.6875 -211.75 159.6875 C-211.75 160.3475 -211.75 161.0075 -211.75 161.6875 C-213.07 161.6875 -214.39 161.6875 -215.75 161.6875 C-215.75 162.3475 -215.75 163.0075 -215.75 163.6875 C-216.74 163.6875 -217.73 163.6875 -218.75 163.6875 C-218.75 164.3475 -218.75 165.0075 -218.75 165.6875 C-220.07 166.0175 -221.39 166.3475 -222.75 166.6875 C-222.75 167.3475 -222.75 168.0075 -222.75 168.6875 C-223.41 168.6875 -224.07 168.6875 -224.75 168.6875 C-224.75 169.3475 -224.75 170.0075 -224.75 170.6875 C-226.01691507 171.36158308 -227.28870749 172.02650497 -228.5625 172.6875 C-229.27019531 173.05875 -229.97789062 173.43 -230.70703125 173.8125 C-232.75 174.6875 -232.75 174.6875 -235.75 174.6875 C-235.75 175.3475 -235.75 176.0075 -235.75 176.6875 C-236.9875 177.0896875 -236.9875 177.0896875 -238.25 177.5 C-241.77799737 178.62786423 -241.77799737 178.62786423 -245.125 180.25 C-259.21638625 185.5578453 -277.80925909 182.72067033 -291.75 178.6875 C-292.08 178.3575 -292.41 178.0275 -292.75 177.6875 C-294.41204487 177.47974439 -296.08029491 177.32031745 -297.75 177.1875 C-302.63888889 176.79861111 -302.63888889 176.79861111 -303.75 175.6875 C-304.905 175.5225 -306.06 175.3575 -307.25 175.1875 C-310.75 174.6875 -310.75 174.6875 -311.75 173.6875 C-313.12024654 173.50225208 -314.4970321 173.3644414 -315.875 173.25 C-320.04974017 172.83586578 -323.75885498 171.96126969 -327.75 170.6875 C-327.75 170.0275 -327.75 169.3675 -327.75 168.6875 C-328.86375 168.501875 -328.86375 168.501875 -330 168.3125 C-332.55141485 167.73263299 -334.4767573 166.95041261 -336.75 165.6875 C-336.75 165.0275 -336.75 164.3675 -336.75 163.6875 C-337.41 163.6875 -338.07 163.6875 -338.75 163.6875 C-338.75 163.0275 -338.75 162.3675 -338.75 161.6875 C-340.07 161.6875 -341.39 161.6875 -342.75 161.6875 C-342.75 161.0275 -342.75 160.3675 -342.75 159.6875 C-343.348125 159.419375 -343.94625 159.15125 -344.5625 158.875 C-346.80952377 157.6551871 -348.116279 156.64164695 -349.75 154.6875 C-351.38431143 149.02773691 -350.71790727 144.1281848 -348.75 138.6875 C-348.09 138.6875 -347.43 138.6875 -346.75 138.6875 C-346.42 137.6975 -346.09 136.7075 -345.75 135.6875 C-345.09 135.6875 -344.43 135.6875 -343.75 135.6875 C-343.75 135.0275 -343.75 134.3675 -343.75 133.6875 C-342.76 133.6875 -341.77 133.6875 -340.75 133.6875 C-340.75 133.0275 -340.75 132.3675 -340.75 131.6875 C-340.09 131.6875 -339.43 131.6875 -338.75 131.6875 C-338.75 131.0275 -338.75 130.3675 -338.75 129.6875 C-337.43 129.6875 -336.11 129.6875 -334.75 129.6875 C-334.75 129.0275 -334.75 128.3675 -334.75 127.6875 C-331.75 125.6875 -331.75 125.6875 -327.75 125.6875 C-327.75 125.0275 -327.75 124.3675 -327.75 123.6875 C-326.18880578 122.89326139 -324.62598036 122.10222877 -323.0625 121.3125 C-322.19238281 120.87164063 -321.32226562 120.43078125 -320.42578125 119.9765625 C-316.23172271 117.95606715 -313.47371086 116.6875 -308.75 116.6875 C-308.75 116.0275 -308.75 115.3675 -308.75 114.6875 C-307.1 114.6875 -305.45 114.6875 -303.75 114.6875 C-303.75 114.0275 -303.75 113.3675 -303.75 112.6875 C-301.77 112.6875 -299.79 112.6875 -297.75 112.6875 C-297.75 112.0275 -297.75 111.3675 -297.75 110.6875 C-296.43 110.6875 -295.11 110.6875 -293.75 110.6875 C-293.75 110.0275 -293.75 109.3675 -293.75 108.6875 C-289.89243493 106.53444043 -287.19870215 105.29496746 -282.75 105.6875 C-282.75 105.0275 -282.75 104.3675 -282.75 103.6875 C-279.37902617 102.18928941 -277.54557881 101.6875 -273.75 101.6875 C-273.75 101.0275 -273.75 100.3675 -273.75 99.6875 C-273.15574219 99.45675781 -272.56148438 99.22601563 -271.94921875 98.98828125 C-266.31347844 96.77079712 -260.78703293 94.38414452 -255.29296875 91.8359375 C-248.32142857 88.6875 -248.32142857 88.6875 -243.75 88.6875 C-243.75 88.0275 -243.75 87.3675 -243.75 86.6875 C-239.92010894 84.88519832 -236.96878192 84.49127759 -232.75 84.6875 C-232.255 83.2025 -232.255 83.2025 -231.75 81.6875 C-228.984375 80.3359375 -228.984375 80.3359375 -225.5 79.0625 C-224.36046875 78.63710938 -223.2209375 78.21171875 -222.046875 77.7734375 C-219.27069097 76.85900721 -216.62630397 76.17409278 -213.75 75.6875 C-213.75 75.0275 -213.75 74.3675 -213.75 73.6875 C-212.1 73.6875 -210.45 73.6875 -208.75 73.6875 C-208.75 73.0275 -208.75 72.3675 -208.75 71.6875 C-206.77 71.6875 -204.79 71.6875 -202.75 71.6875 C-202.75 71.0275 -202.75 70.3675 -202.75 69.6875 C-199.02087172 67.04603414 -195.04111042 65.5699375 -190.75 64.0625 C-189.55375 63.63710938 -188.3575 63.21171875 -187.125 62.7734375 C-184.32391171 61.87216141 -181.64518083 61.18099673 -178.75 60.6875 C-178.75 60.0275 -178.75 59.3675 -178.75 58.6875 C-178.01394531 58.43355469 -177.27789062 58.17960937 -176.51953125 57.91796875 C-175.54371094 57.57378906 -174.56789063 57.22960937 -173.5625 56.875 C-172.59957031 56.53855469 -171.63664063 56.20210938 -170.64453125 55.85546875 C-167.70976088 54.76080469 -167.70976088 54.76080469 -165.0625 53.0625 C-162.39525005 51.4765676 -160.79940379 51.42612253 -157.75 51.6875 C-157.75 51.0275 -157.75 50.3675 -157.75 49.6875 C-156.1 49.6875 -154.45 49.6875 -152.75 49.6875 C-152.75 49.0275 -152.75 48.3675 -152.75 47.6875 C-151.43 47.6875 -150.11 47.6875 -148.75 47.6875 C-148.75 47.0275 -148.75 46.3675 -148.75 45.6875 C-144.92679443 44.26491188 -141.83718695 43.44707724 -137.75 43.6875 C-137.75 43.0275 -137.75 42.3675 -137.75 41.6875 C-134.78 41.1925 -134.78 41.1925 -131.75 40.6875 C-131.75 40.0275 -131.75 39.3675 -131.75 38.6875 C-130.1 38.6875 -128.45 38.6875 -126.75 38.6875 C-126.75 38.0275 -126.75 37.3675 -126.75 36.6875 C-125.43 36.6875 -124.11 36.6875 -122.75 36.6875 C-122.75 36.0275 -122.75 35.3675 -122.75 34.6875 C-118.92679443 33.26491188 -115.83718695 32.44707724 -111.75 32.6875 C-111.75 32.0275 -111.75 31.3675 -111.75 30.6875 C-109.77 30.6875 -107.79 30.6875 -105.75 30.6875 C-105.42 29.6975 -105.09 28.7075 -104.75 27.6875 C-102.08984375 26.40625 -102.08984375 26.40625 -98.6875 25.1875 C-97.50414062 24.75566406 -96.32078125 24.32382812 -95.1015625 23.87890625 C-93.44253906 23.28916016 -93.44253906 23.28916016 -91.75 22.6875 C-90.35287726 22.17013543 -88.95677037 21.65000304 -87.5625 21.125 C-86.94632813 20.89425781 -86.33015625 20.66351563 -85.6953125 20.42578125 C-78.74006841 17.78614042 -71.97476217 14.9173686 -65.29296875 11.640625 C-62.59303548 10.62866845 -60.60762057 10.50280639 -57.75 10.6875 C-57.75 10.0275 -57.75 9.3675 -57.75 8.6875 C-57.09773438 8.50574219 -56.44546875 8.32398438 -55.7734375 8.13671875 C-50.80122816 6.70665854 -46.34903269 5.09153982 -41.75 2.6875 C-39.75594227 2.0032645 -37.75506339 1.33877971 -35.75 0.6875 C-34.75742187 0.33429688 -33.76484375 -0.01890625 -32.7421875 -0.3828125 C-21.65399931 -4.13445512 -10.8196749 -5.16393575 0 0 Z " fill="#FAFAFA" transform="translate(685.75,409.3125)"/>
</svg>
